<svg id="visual" viewBox="0 0 960 300" width="960" height="300" xmlns="http://www.w3.org/2000/svg" xmlns:xlink="http://www.w3.org/1999/xlink" version="1.1"><rect x="0" y="0" width="960" height="300" fill="#302b30"></rect><path d="M0 137L8.8 135.3C17.7 133.7 35.3 130.3 53.2 144.2C71 158 89 189 106.8 194.7C124.7 200.3 142.3 180.7 160 158.3C177.7 136 195.3 111 213.2 107.7C231 104.3 249 122.7 266.8 134C284.7 145.3 302.3 149.7 320 142.7C337.7 135.7 355.3 117.3 373.2 123C391 128.7 409 158.3 426.8 160C444.7 161.7 462.3 135.3 480 126.8C497.7 118.3 515.3 127.7 533.2 119.7C551 111.7 569 86.3 586.8 83.5C604.7 80.7 622.3 100.3 640 127C657.7 153.7 675.3 187.3 693.2 205C711 222.7 729 224.3 746.8 217C764.7 209.7 782.3 193.3 800 190.7C817.7 188 835.3 199 853.2 184.7C871 170.3 889 130.7 906.8 123.5C924.7 116.3 942.3 141.7 951.2 154.3L960 167L960 0L951.2 0C942.3 0 924.7 0 906.8 0C889 0 871 0 853.2 0C835.3 0 817.7 0 800 0C782.3 0 764.7 0 746.8 0C729 0 711 0 693.2 0C675.3 0 657.7 0 640 0C622.3 0 604.7 0 586.8 0C569 0 551 0 533.2 0C515.3 0 497.7 0 480 0C462.3 0 444.7 0 426.8 0C409 0 391 0 373.2 0C355.3 0 337.7 0 320 0C302.3 0 284.7 0 266.8 0C249 0 231 0 213.2 0C195.3 0 177.7 0 160 0C142.3 0 124.7 0 106.8 0C89 0 71 0 53.2 0C35.3 0 17.7 0 8.8 0L0 0Z" fill="#30d31a"></path><path d="M0 53L8.8 56.2C17.7 59.3 35.3 65.7 53.2 69.2C71 72.7 89 73.3 106.8 80.5C124.7 87.7 142.3 101.3 160 119.2C177.7 137 195.3 159 213.2 153.2C231 147.3 249 113.7 266.8 107.5C284.7 101.3 302.3 122.7 320 123.7C337.7 124.7 355.3 105.3 373.2 108.5C391 111.7 409 137.3 426.8 147C444.7 156.7 462.3 150.3 480 135.2C497.7 120 515.3 96 533.2 88.7C551 81.3 569 90.7 586.8 100.7C604.7 110.7 622.3 121.3 640 124.5C657.7 127.7 675.3 123.3 693.2 111.5C711 99.7 729 80.3 746.8 75.5C764.7 70.7 782.3 80.3 800 98.7C817.7 117 835.3 144 853.2 147.2C871 150.3 889 129.7 906.8 115.3C924.7 101 942.3 93 951.2 89L960 85L960 0L951.2 0C942.3 0 924.7 0 906.8 0C889 0 871 0 853.2 0C835.3 0 817.7 0 800 0C782.3 0 764.7 0 746.8 0C729 0 711 0 693.2 0C675.3 0 657.7 0 640 0C622.3 0 604.7 0 586.8 0C569 0 551 0 533.2 0C515.3 0 497.7 0 480 0C462.3 0 444.7 0 426.8 0C409 0 391 0 373.2 0C355.3 0 337.7 0 320 0C302.3 0 284.7 0 266.8 0C249 0 231 0 213.2 0C195.3 0 177.7 0 160 0C142.3 0 124.7 0 106.8 0C89 0 71 0 53.2 0C35.3 0 17.7 0 8.8 0L0 0Z" fill="#c2ac00"></path><path d="M0 141L8.8 133.3C17.7 125.7 35.3 110.3 53.2 102.2C71 94 89 93 106.8 88.3C124.7 83.7 142.3 75.3 160 80.2C177.7 85 195.3 103 213.2 115.2C231 127.3 249 133.7 266.8 137.8C284.7 142 302.3 144 320 144C337.7 144 355.3 142 373.2 128.5C391 115 409 90 426.8 80.3C444.7 70.7 462.3 76.3 480 83.8C497.7 91.3 515.3 100.7 533.2 100.3C551 100 569 90 586.8 86C604.7 82 622.3 84 640 89C657.7 94 675.3 102 693.2 105.5C711 109 729 108 746.8 114.3C764.7 120.7 782.3 134.3 800 141.7C817.7 149 835.3 150 853.2 144.8C871 139.7 889 128.3 906.8 115.7C924.7 103 942.3 89 951.2 82L960 75L960 0L951.2 0C942.3 0 924.7 0 906.8 0C889 0 871 0 853.2 0C835.3 0 817.7 0 800 0C782.3 0 764.7 0 746.8 0C729 0 711 0 693.2 0C675.3 0 657.7 0 640 0C622.3 0 604.7 0 586.8 0C569 0 551 0 533.2 0C515.3 0 497.7 0 480 0C462.3 0 444.7 0 426.8 0C409 0 391 0 373.2 0C355.3 0 337.7 0 320 0C302.3 0 284.7 0 266.8 0C249 0 231 0 213.2 0C195.3 0 177.7 0 160 0C142.3 0 124.7 0 106.8 0C89 0 71 0 53.2 0C35.3 0 17.7 0 8.8 0L0 0Z" fill="#ff7724"></path><path d="M0 112L8.8 100.3C17.7 88.7 35.3 65.3 53.2 55.2C71 45 89 48 106.8 58.3C124.7 68.7 142.3 86.3 160 84.8C177.7 83.3 195.3 62.7 213.2 52.8C231 43 249 44 266.8 42C284.7 40 302.3 35 320 36.2C337.7 37.3 355.3 44.7 373.2 56.2C391 67.7 409 83.3 426.8 93C444.7 102.7 462.3 106.3 480 101.8C497.7 97.3 515.3 84.7 533.2 77.8C551 71 569 70 586.8 65.7C604.7 61.3 622.3 53.7 640 54.5C657.7 55.3 675.3 64.7 693.2 75C711 85.3 729 96.7 746.8 98.8C764.7 101 782.3 94 800 86C817.7 78 835.3 69 853.2 59.8C871 50.7 889 41.3 906.8 41.3C924.7 41.3 942.3 50.7 951.2 55.3L960 60L960 0L951.2 0C942.3 0 924.7 0 906.8 0C889 0 871 0 853.2 0C835.3 0 817.7 0 800 0C782.3 0 764.7 0 746.8 0C729 0 711 0 693.2 0C675.3 0 657.7 0 640 0C622.3 0 604.7 0 586.8 0C569 0 551 0 533.2 0C515.3 0 497.7 0 480 0C462.3 0 444.7 0 426.8 0C409 0 391 0 373.2 0C355.3 0 337.7 0 320 0C302.3 0 284.7 0 266.8 0C249 0 231 0 213.2 0C195.3 0 177.7 0 160 0C142.3 0 124.7 0 106.8 0C89 0 71 0 53.2 0C35.3 0 17.7 0 8.8 0L0 0Z" fill="#ff4c84"></path><path d="M0 42L8.8 41C17.7 40 35.3 38 53.2 43C71 48 89 60 106.8 60.5C124.7 61 142.3 50 160 49.5C177.7 49 195.3 59 213.2 57.2C231 55.3 249 41.7 266.8 41.5C284.7 41.3 302.3 54.7 320 61C337.7 67.3 355.3 66.7 373.2 61.5C391 56.3 409 46.7 426.8 47.7C444.7 48.7 462.3 60.3 480 67.2C497.7 74 515.3 76 533.2 70.2C551 64.3 569 50.7 586.8 46.2C604.7 41.7 622.3 46.3 640 49.3C657.7 52.3 675.3 53.7 693.2 52.8C711 52 729 49 746.8 46.7C764.7 44.3 782.3 42.7 800 47.2C817.7 51.7 835.3 62.3 853.2 67.7C871 73 889 73 906.8 65.2C924.7 57.3 942.3 41.7 951.2 33.8L960 26L960 0L951.2 0C942.3 0 924.7 0 906.8 0C889 0 871 0 853.2 0C835.3 0 817.7 0 800 0C782.3 0 764.7 0 746.8 0C729 0 711 0 693.2 0C675.3 0 657.7 0 640 0C622.3 0 604.7 0 586.8 0C569 0 551 0 533.2 0C515.3 0 497.7 0 480 0C462.3 0 444.7 0 426.8 0C409 0 391 0 373.2 0C355.3 0 337.7 0 320 0C302.3 0 284.7 0 266.8 0C249 0 231 0 213.2 0C195.3 0 177.7 0 160 0C142.3 0 124.7 0 106.8 0C89 0 71 0 53.2 0C35.3 0 17.7 0 8.8 0L0 0Z" fill="#e164de"></path></svg>